<?xml version="1.0" standalone="no"?>
<!DOCTYPE svg PUBLIC "-//W3C//DTD SVG 20010904//EN"
 "http://www.w3.org/TR/2001/REC-SVG-20010904/DTD/svg10.dtd">
<svg version="1.0" xmlns="http://www.w3.org/2000/svg"
 width="80.000000pt" height="80.000000pt" viewBox="0 0 80.000000 80.000000"
 preserveAspectRatio="xMidYMid meet">
<metadata>
Created by potrace 1.14, written by Peter Selinger 2001-2017
</metadata>
<g transform="translate(0.000000,80.000000) scale(0.100000,-0.100000)"
fill="#000000" stroke="none">
<path d="M350 792 c-69 -10 -156 -48 -184 -80 -82 -94 -103 -211 -56 -315 15
-33 26 -47 38 -45 21 4 18 -29 -6 -55 -12 -13 -13 -20 -4 -29 7 -7 12 -18 12
-25 0 -6 13 -35 30 -63 17 -28 30 -64 30 -80 0 -17 5 -30 11 -30 5 0 9 -10 7
-22 -3 -20 4 -25 42 -34 69 -18 167 -11 228 15 50 23 68 50 42 66 -5 3 -10 15
-10 25 0 17 6 16 57 -15 31 -19 59 -33 61 -30 2 2 -16 31 -39 64 -42 59 -42
62 -25 79 11 9 16 12 13 6 -4 -6 0 -20 8 -30 14 -19 14 -18 15 1 0 11 7 30 15
42 13 19 20 21 43 12 l27 -10 -21 21 c-19 19 -20 26 -10 53 6 18 16 38 23 45
12 12 11 41 -2 117 -7 42 -9 48 -48 135 -59 130 -174 201 -297 182z m-25 -641
c3 -5 1 -12 -5 -16 -5 -3 -10 1 -10 9 0 18 6 21 15 7z"/>
</g>
</svg>
